<?xml version="1.0" encoding="utf-8"?>
<!DOCTYPE svg PUBLIC "-//W3C//DTD SVG 1.1//EN" "http://www.w3.org/Graphics/SVG/1.1/DTD/svg11.dtd">
<svg version="1.1" baseProfile="full"
 xmlns="http://www.w3.org/2000/svg"
 xmlns:xlink="http://www.w3.org/1999/xlink"
 xmlns:ev="http://www.w3.org/2001/xml-events" 
  height="11px" 
  width="30px" 
>
<path fill="rgb( 255, 255, 255 )"
 d="M29.758,6 C29.758,6 25.652,10.106 25.652,10.106 C25.652,10.106 24.945,9.399 24.945,9.399 C24.945,9.399 28.344,6 28.344,6 C28.344,6 0,6 0,6 C0,6 0,5 0,5 C0,5 28.344,5 28.344,5 C28.344,5 24.945,1.601 24.945,1.601 C24.945,1.601 25.652,0.89400000000001 25.652,0.89400000000001 C25.652,0.89400000000001 29.758,5 29.758,5 C29.758,5 30,5 30,5 C30,5 30,6 30,6 C30,6 29.758,6 29.758,6 Z "/>
</svg>
