<?xml version="1.0" encoding="utf-8"?>
<!DOCTYPE svg PUBLIC "-//W3C//DTD SVG 1.1//EN" "http://www.w3.org/Graphics/SVG/1.1/DTD/svg11.dtd">
<svg version="1.1" baseProfile="full"
 xmlns="http://www.w3.org/2000/svg"
 xmlns:xlink="http://www.w3.org/1999/xlink"
 xmlns:ev="http://www.w3.org/2001/xml-events" 
  height="11px" 
  width="18px" 
>
<path fill="rgb( 255, 255, 255 )"
 d="M0,11 C0,11 0,10 0,10 C0,10 18,10 18,10 C18,10 18,11 18,11 C18,11 0,11 0,11 ZM0,5 C0,5 18,5 18,5 C18,5 18,6 18,6 C18,6 0,6 0,6 C0,6 0,5 0,5 ZM0,0 C0,0 18,0 18,0 C18,0 18,1 18,1 C18,1 0,1 0,1 C0,1 0,0 0,0 Z "/>
</svg>
