<?xml version="1.0" encoding="utf-8"?>
<!DOCTYPE svg PUBLIC "-//W3C//DTD SVG 1.1//EN" "http://www.w3.org/Graphics/SVG/1.1/DTD/svg11.dtd">
<svg version="1.1" baseProfile="full"
 xmlns="http://www.w3.org/2000/svg"
 xmlns:xlink="http://www.w3.org/1999/xlink"
 xmlns:ev="http://www.w3.org/2001/xml-events" 
  height="10px" 
  width="9px" 
>
<path fill="rgb( 255, 255, 255 )"
 d="M4.98899999999998,9.758 C4.98899999999998,9.758 4.98899999999998,10 4.98899999999998,10 C4.98899999999998,10 4.012,10 4.012,10 C4.012,10 4.012,9.758 4.012,9.758 C4.012,9.758 0,5.652 0,5.652 C0,5.652 0.69099999999997,4.945 0.69099999999997,4.945 C0.69099999999997,4.945 4.012,8.344 4.012,8.344 C4.012,8.344 4.012,0 4.012,0 C4.012,0 4.98899999999998,0 4.98899999999998,0 C4.98899999999998,0 4.98899999999998,8.344 4.98899999999998,8.344 C4.98899999999998,8.344 8.30900000000003,4.945 8.30900000000003,4.945 C8.30900000000003,4.945 9,5.652 9,5.652 C9,5.652 4.98899999999998,9.758 4.98899999999998,9.758 Z "/>
</svg>
