<svg xmlns="http://www.w3.org/2000/svg" xmlns:xlink="http://www.w3.org/1999/xlink" preserveAspectRatio="xMidYMid" width="11" height="14" viewBox="0 0 11 14">
  <defs>
    <style>
      .cls-1 {
        fill: #000;
        fill-rule: evenodd;
      }
    </style>
  </defs>
  <path d="M1.000,14.000 L-0.000,14.000 L-0.000,0.000 L1.000,0.000 L7.493,0.000 L11.000,3.441 L11.000,13.000 L11.000,14.000 L1.000,14.000 ZM10.000,3.960 L7.000,1.001 L7.000,4.000 L10.000,4.000 L10.000,3.960 ZM10.000,5.000 L6.000,5.000 L6.000,1.000 L1.000,1.000 L1.000,13.000 L10.000,13.000 L10.000,5.000 ZM5.000,5.000 L2.000,5.000 L2.000,4.000 L5.000,4.000 L5.000,5.000 ZM9.000,7.000 L2.000,7.000 L2.000,6.000 L9.000,6.000 L9.000,7.000 ZM9.000,9.000 L2.000,9.000 L2.000,8.000 L9.000,8.000 L9.000,9.000 ZM9.000,11.000 L2.000,11.000 L2.000,10.000 L9.000,10.000 L9.000,11.000 Z" class="cls-1"/>
</svg>
