<svg xmlns="http://www.w3.org/2000/svg" xmlns:xlink="http://www.w3.org/1999/xlink" preserveAspectRatio="xMidYMid" width="41" height="38" viewBox="0 0 41 38">
  <defs>
    <style>
      .cls-1 {
        fill: #aaa;
        fill-rule: evenodd;
      }
    </style>
  </defs>
  <path d="M38.000,21.000 L38.000,24.000 L36.000,24.000 L36.000,21.000 L33.000,21.000 L33.000,19.000 L36.000,19.000 L36.000,16.000 L38.000,16.000 L38.000,19.000 L41.000,19.000 L41.000,21.000 L38.000,21.000 ZM38.000,11.000 L36.000,11.000 L36.000,9.000 L38.000,9.000 L38.000,11.000 ZM39.067,6.241 C38.765,6.474 38.568,6.709 38.474,6.945 C38.380,7.181 38.333,7.505 38.333,7.917 L36.178,7.917 C36.183,7.222 36.285,6.713 36.485,6.390 C36.685,6.067 37.084,5.675 37.682,5.213 C38.032,4.925 38.312,4.615 38.522,4.282 C38.732,3.950 38.837,3.577 38.837,3.165 C38.837,2.709 38.717,2.351 38.478,2.093 C38.238,1.835 37.896,1.705 37.452,1.705 C37.086,1.705 36.776,1.815 36.522,2.033 C36.268,2.252 36.138,2.572 36.133,2.994 L34.030,2.994 L34.015,2.949 C34.000,1.996 34.312,1.266 34.952,0.760 C35.591,0.253 36.425,-0.000 37.452,-0.000 C38.558,-0.000 39.426,0.282 40.056,0.845 C40.685,1.409 41.000,2.175 41.000,3.143 C41.000,3.773 40.816,4.357 40.448,4.893 C40.080,5.429 39.620,5.879 39.067,6.241 ZM27.018,38.000 L1.029,38.000 C0.475,38.000 0.000,37.498 0.000,36.943 L0.000,0.964 C0.000,0.416 0.477,0.000 1.033,0.000 C1.033,0.000 11.298,0.000 18.925,0.000 C19.127,0.000 19.525,0.000 19.525,0.000 L28.000,8.451 C28.000,8.451 28.000,8.834 28.000,9.029 C28.000,19.636 28.000,36.943 28.000,36.943 C28.000,37.498 27.578,38.000 27.018,38.000 ZM26.000,9.000 L25.986,9.000 L19.000,2.024 L19.000,2.000 L17.000,1.964 L17.000,2.000 L2.000,2.000 L2.000,36.000 L26.000,36.000 L26.000,11.000 L26.018,11.000 L26.000,9.000 ZM26.000,11.000 L18.029,11.000 C17.475,11.000 17.000,10.498 17.000,9.943 L17.000,2.000 L18.976,2.000 L19.000,2.024 L19.000,9.000 L25.986,9.000 L26.000,9.014 L26.000,11.000 ZM22.000,16.000 L6.000,16.000 L6.000,14.000 L22.000,14.000 L22.000,16.000 ZM6.000,10.000 L13.000,10.000 L13.000,12.000 L6.000,12.000 L6.000,10.000 ZM6.000,6.000 L13.000,6.000 L13.000,8.000 L6.000,8.000 L6.000,6.000 ZM22.000,20.000 L6.000,20.000 L6.000,18.000 L22.000,18.000 L22.000,20.000 ZM22.000,24.000 L6.000,24.000 L6.000,22.000 L22.000,22.000 L22.000,24.000 ZM22.000,28.000 L6.000,28.000 L6.000,26.000 L22.000,26.000 L22.000,28.000 ZM22.000,32.000 L6.000,32.000 L6.000,30.000 L22.000,30.000 L22.000,32.000 Z" class="cls-1"/>
</svg>
