<svg xmlns="http://www.w3.org/2000/svg" xmlns:xlink="http://www.w3.org/1999/xlink" preserveAspectRatio="xMidYMid" width="42" height="36" viewBox="0 0 42 36">
  <defs>
    <style>
      .cls-1 {
        fill: #aaa;
        fill-rule: evenodd;
      }
    </style>
  </defs>
  <path d="M41.018,32.000 L22.000,32.000 L22.000,34.000 L27.953,34.018 C28.509,34.018 28.961,34.462 28.961,35.009 C28.961,35.556 28.509,36.000 27.953,36.000 L21.116,36.000 C21.108,36.000 21.100,36.000 21.093,36.000 C21.085,36.000 21.077,36.000 21.069,36.000 L14.233,36.000 C13.676,36.000 13.225,35.556 13.225,35.009 C13.225,34.462 13.676,34.018 14.233,34.018 L20.048,34.018 L20.000,32.000 L1.029,32.000 C0.474,32.000 -0.000,31.498 -0.000,30.943 L-0.000,0.964 C-0.000,0.417 0.476,0.000 1.033,0.000 L41.023,0.000 C41.579,0.000 42.000,0.417 42.000,0.964 L42.000,30.943 C42.000,31.498 41.578,32.000 41.018,32.000 ZM2.016,1.982 L2.007,29.987 L21.069,30.000 L39.975,29.987 L39.984,1.982 L2.016,1.982 ZM31.500,9.000 L7.500,9.000 C7.224,9.000 7.000,8.776 7.000,8.500 L7.000,7.500 C7.000,7.224 7.224,7.000 7.500,7.000 L31.500,7.000 C31.776,7.000 32.000,7.224 32.000,7.500 L32.000,8.500 C32.000,8.776 31.776,9.000 31.500,9.000 ZM7.500,11.000 L22.500,11.000 C22.776,11.000 23.000,11.224 23.000,11.500 L23.000,12.500 C23.000,12.776 22.776,13.000 22.500,13.000 L7.500,13.000 C7.224,13.000 7.000,12.776 7.000,12.500 L7.000,11.500 C7.000,11.224 7.224,11.000 7.500,11.000 ZM7.500,15.000 L17.500,15.000 C17.776,15.000 18.000,15.224 18.000,15.500 L18.000,16.500 C18.000,16.776 17.776,17.000 17.500,17.000 L7.500,17.000 C7.224,17.000 7.000,16.776 7.000,16.500 L7.000,15.500 C7.000,15.224 7.224,15.000 7.500,15.000 ZM7.500,19.000 L19.500,19.000 C19.776,19.000 20.000,19.224 20.000,19.500 L20.000,20.500 C20.000,20.776 19.776,21.000 19.500,21.000 L7.500,21.000 C7.224,21.000 7.000,20.776 7.000,20.500 L7.000,19.500 C7.000,19.224 7.224,19.000 7.500,19.000 ZM7.500,23.000 L25.500,23.000 C25.776,23.000 26.000,23.224 26.000,23.500 L26.000,24.500 C26.000,24.776 25.776,25.000 25.500,25.000 L7.500,25.000 C7.224,25.000 7.000,24.776 7.000,24.500 L7.000,23.500 C7.000,23.224 7.224,23.000 7.500,23.000 Z" class="cls-1"/>
</svg>
