<svg xmlns="http://www.w3.org/2000/svg" xmlns:xlink="http://www.w3.org/1999/xlink" preserveAspectRatio="xMidYMid" width="16.282" height="16.31" viewBox="0 0 16.282 16.31">
  <defs>
    <style>
      .cls-1 {
        fill: #fff;
        fill-rule: evenodd;
      }
    </style>
  </defs>
  <path d="M8.136,16.310 C3.634,16.310 -0.015,12.660 -0.015,8.158 C-0.015,7.837 0.008,7.522 0.044,7.210 C0.025,7.199 0.004,7.191 -0.015,7.181 L0.077,6.996 C0.643,3.046 4.030,0.007 8.136,0.007 C12.638,0.007 16.287,3.657 16.287,8.158 C16.287,12.660 12.638,16.310 8.136,16.310 ZM14.543,9.352 C13.656,9.006 12.707,8.811 11.723,8.811 C11.428,8.811 11.140,8.826 10.854,8.850 C11.281,10.233 11.596,11.819 11.714,13.607 C13.168,12.650 14.214,11.128 14.543,9.352 ZM10.412,14.263 C10.377,13.809 10.175,11.608 9.378,9.081 C6.960,9.651 5.050,11.124 4.146,13.309 C5.249,14.165 6.631,14.680 8.136,14.680 C8.938,14.680 9.702,14.528 10.412,14.263 ZM1.615,8.158 C1.615,9.696 2.150,11.105 3.039,12.219 C4.269,10.079 6.431,8.520 8.953,7.858 C8.860,7.617 8.760,7.375 8.656,7.134 C7.592,7.470 6.345,7.713 4.875,7.832 C3.814,7.919 2.673,7.949 1.635,7.758 C1.627,7.891 1.615,8.023 1.615,8.158 ZM1.890,6.290 C2.985,6.546 4.310,6.654 5.201,6.528 C6.343,6.368 7.282,6.165 8.076,5.924 C7.364,4.582 6.440,3.313 5.239,2.323 C3.638,3.119 2.410,4.549 1.890,6.290 ZM6.717,1.797 C7.341,2.407 8.412,3.599 9.410,5.420 C10.705,4.812 11.487,4.024 12.184,3.052 C11.072,2.169 9.667,1.638 8.136,1.638 C7.648,1.638 7.174,1.696 6.717,1.797 ZM13.097,3.933 C12.476,4.987 11.488,5.917 10.007,6.613 C10.147,6.922 10.284,7.245 10.415,7.582 C10.739,7.544 11.066,7.515 11.397,7.507 C12.607,7.476 13.686,7.609 14.643,7.876 C14.578,6.374 14.011,5.004 13.097,3.933 Z" class="cls-1"/>
</svg>
