<svg xmlns="http://www.w3.org/2000/svg" xmlns:xlink="http://www.w3.org/1999/xlink" preserveAspectRatio="xMidYMid" width="42.532" height="24.344" viewBox="0 0 42.532 24.344">
  <defs>
    <style>
      .cls-1 {
        fill: #fff;
        fill-rule: evenodd;
      }
    </style>
  </defs>
  <path d="M41.963,10.686 C41.811,10.537 41.653,10.332 41.553,10.182 C38.206,6.602 34.396,3.881 30.276,2.014 C24.507,-0.558 18.637,-0.656 12.920,1.762 C8.543,3.578 4.575,6.401 0.923,10.281 C-0.312,11.541 -0.312,12.801 0.923,14.112 C3.755,17.188 7.103,19.709 10.912,21.674 C12.305,22.379 13.692,22.986 15.085,23.387 C17.144,23.994 19.257,24.344 21.417,24.344 L21.417,24.344 C21.932,24.344 22.447,24.344 22.962,24.293 C23.887,24.190 24.917,24.092 25.899,23.840 C31.769,22.379 37.076,19.102 42.016,13.758 C42.688,12.852 42.688,11.643 41.963,10.686 ZM40.471,12.502 C35.784,17.543 30.839,20.671 25.332,22.029 C24.454,22.230 23.477,22.332 22.652,22.430 C20.282,22.579 17.864,22.328 15.547,21.623 C14.260,21.221 12.972,20.717 11.737,20.008 C8.133,18.141 4.938,15.723 2.263,12.801 C1.695,12.194 1.695,12.045 2.263,11.489 C5.763,7.811 9.472,5.137 13.592,3.424 C16.114,2.364 18.689,1.809 21.212,1.809 C23.939,1.809 26.671,2.415 29.399,3.676 C33.314,5.440 36.918,8.063 40.108,11.438 C40.213,11.541 40.313,11.690 40.418,11.793 C40.628,12.049 40.676,12.301 40.471,12.502 ZM21.107,5.244 C17.140,5.244 13.897,8.418 13.897,12.301 C13.897,16.185 17.140,19.359 21.107,19.359 C25.074,19.359 28.316,16.185 28.316,12.301 C28.369,8.418 25.127,5.244 21.107,5.244 ZM21.107,17.543 C18.170,17.543 15.805,15.223 15.805,12.353 C15.805,9.482 18.174,7.158 21.107,7.158 C24.039,7.158 26.409,9.478 26.409,12.348 C26.466,15.172 24.044,17.543 21.107,17.543 Z" class="cls-1"/>
</svg>
