<svg xmlns="http://www.w3.org/2000/svg" xmlns:xlink="http://www.w3.org/1999/xlink" preserveAspectRatio="xMidYMid" width="16.312" height="15.35" viewBox="0 0 16.312 15.35">
  <defs>
    <style>
      .cls-1 {
        fill: #fff;
        fill-rule: evenodd;
      }
    </style>
  </defs>
  <path d="M13.056,15.334 L13.056,8.949 C13.056,8.949 12.713,7.602 11.426,7.672 C10.139,7.742 9.736,7.927 9.144,8.629 L9.144,15.334 L5.883,15.334 L5.883,5.226 L9.144,5.226 L9.144,6.714 C9.144,6.714 10.207,4.642 12.404,4.799 C14.412,4.942 15.908,6.167 16.240,8.813 L16.317,8.813 L16.317,15.334 L13.056,15.334 ZM1.971,3.922 C0.890,3.922 0.014,3.046 0.014,1.966 C0.014,0.885 0.890,0.010 1.971,0.010 C3.051,0.010 3.927,0.885 3.927,1.966 C3.927,3.046 3.051,3.922 1.971,3.922 ZM3.601,15.334 L0.340,15.334 L0.340,5.226 L3.601,5.226 L3.601,15.334 Z" class="cls-1"/>
</svg>
