<svg xmlns="http://www.w3.org/2000/svg" xmlns:xlink="http://www.w3.org/1999/xlink" preserveAspectRatio="xMidYMid" width="16.313" height="13.41" viewBox="0 0 16.313 13.41">
  <defs>
    <style>
      .cls-1 {
        fill: #fff;
        fill-rule: evenodd;
      }
    </style>
  </defs>
  <path d="M14.685,2.300 L16.327,1.974 C16.327,1.974 14.952,3.521 14.685,3.604 C14.683,3.605 14.680,3.602 14.677,3.602 C14.642,4.357 14.685,4.582 14.685,4.582 C11.548,18.024 0.002,12.082 0.002,12.082 C4.203,12.192 4.578,10.452 4.578,10.452 C2.117,10.080 1.643,8.495 1.643,8.495 C2.479,8.875 2.947,8.169 2.947,8.169 C0.292,7.483 0.665,4.908 0.665,4.908 C1.108,5.314 1.833,5.468 2.265,5.526 C1.965,5.178 -0.513,2.207 0.991,0.670 C0.991,0.670 2.801,3.925 7.594,4.236 L7.914,4.156 C7.865,3.925 7.838,3.686 7.838,3.441 C7.838,1.550 9.371,0.018 11.262,0.018 C13.541,0.018 14.033,1.322 14.033,1.322 L15.663,0.344 C15.663,0.344 15.485,1.978 14.685,2.300 Z" class="cls-1"/>
</svg>
