<svg xmlns="http://www.w3.org/2000/svg" xmlns:xlink="http://www.w3.org/1999/xlink" preserveAspectRatio="xMidYMid" width="14" height="14" viewBox="0 0 14 14">
  <defs>
    <style>
      .cls-1 {
        fill: #000;
        opacity: 0.2;
        fill-rule: evenodd;
      }
    </style>
  </defs>
  <path d="M8.000,14.000 L8.000,8.000 L14.000,8.000 L14.000,14.000 L8.000,14.000 ZM13.000,9.000 L9.000,9.000 L9.000,13.000 L13.000,13.000 L13.000,9.000 ZM8.000,-0.000 L14.000,-0.000 L14.000,6.000 L8.000,6.000 L8.000,-0.000 ZM9.000,5.000 L13.000,5.000 L13.000,1.000 L9.000,1.000 L9.000,5.000 ZM-0.000,8.000 L6.000,8.000 L6.000,14.000 L-0.000,14.000 L-0.000,8.000 ZM1.000,13.000 L5.000,13.000 L5.000,9.000 L1.000,9.000 L1.000,13.000 ZM-0.000,-0.000 L6.000,-0.000 L6.000,6.000 L-0.000,6.000 L-0.000,-0.000 ZM1.000,5.000 L5.000,5.000 L5.000,1.000 L1.000,1.000 L1.000,5.000 Z" class="cls-1"/>
</svg>
