<?xml version="1.0" encoding="utf-8"?>
<!DOCTYPE svg PUBLIC "-//W3C//DTD SVG 1.1//EN" "http://www.w3.org/Graphics/SVG/1.1/DTD/svg11.dtd">
<svg version="1.1" baseProfile="full"
 xmlns="http://www.w3.org/2000/svg"
 xmlns:xlink="http://www.w3.org/1999/xlink"
 xmlns:ev="http://www.w3.org/2001/xml-events" 
  height="24px" 
  width="85px" 
>
<path fill="rgb( 255, 255, 255 )"
 d="M84.074,10.944 C84.074,10.944 82.551,10.886 82.551,10.886 C81.857,10.886 81.279,11.032 80.8150000000001,11.325 C80.351,11.618 79.992,12.034 79.7380000000001,12.571 C79.7380000000001,12.571 79.7380000000001,23.586 79.7380000000001,23.586 C79.7380000000001,23.586 76.179,23.586 76.179,23.586 C76.179,23.586 76.179,7.736 76.179,7.736 C76.179,7.736 79.431,7.736 79.431,7.736 C79.431,7.736 79.665,10.036 79.665,10.036 C80.0650000000001,9.226 80.58,8.591 81.21,8.132 C81.84,7.673 82.5650000000001,7.443 83.386,7.443 C83.6,7.443 83.801,7.461 83.986,7.495 C84.172,7.529 84.343,7.57 84.499,7.619 C84.499,7.619 84.074,10.944 84.074,10.944 ZM63.39,16.759 C63.449,18.015 63.818,19.042 64.497,19.84 C65.175,20.638 66.115,21.037 67.316,21.037 C68.273,21.037 69.0940000000001,20.92 69.777,20.686 C70.461,20.451 71.12,20.114 71.755,19.675 C71.755,19.675 72.897,22.009 72.897,22.009 C72.302,22.539 71.511,22.986 70.524,23.349 C69.538,23.712 68.395,23.893 67.097,23.893 C64.85,23.893 63.061,23.159 61.728,21.689 C60.395,20.219 59.728,18.332 59.728,16.027 C59.728,16.027 59.728,15.441 59.728,15.441 C59.728,13.137 60.39,11.225 61.713,9.706 C63.0359999999999,8.188 64.694,7.434 66.686,7.443 C68.825,7.443 70.463,8.09 71.601,9.384 C72.739,10.678 73.308,12.414 73.308,14.592 C73.308,14.592 73.308,16.687 73.308,16.687 C73.308,16.687 63.42,16.687 63.42,16.687 C63.42,16.687 63.39,16.759 63.39,16.759 ZM63.4930000000001,14.079 C63.4930000000001,14.079 69.777,14.079 69.777,14.079 C69.777,14.079 69.777,13.713 69.777,13.713 C69.777,12.707 69.521,11.887 69.008,11.252 C68.496,10.617 67.722,10.3 66.686,10.3 C65.808,10.3 65.085,10.649 64.519,11.347 C63.952,12.045 63.6,12.932 63.4640000000001,14.006 C63.4640000000001,14.006 63.4930000000001,14.079 63.4930000000001,14.079 ZM50.6900000000001,23.893 C48.63,23.893 47.004,23.366 45.812,22.312 C44.621,21.257 44.055,20.046 44.1130000000001,18.679 C44.1130000000001,18.679 44.143,18.591 44.143,18.591 C44.143,18.591 47.453,18.591 47.453,18.591 C47.492,19.509 47.824,20.178 48.449,20.598 C49.074,21.018 49.836,21.227 50.734,21.227 C51.652,21.227 52.36,21.051 52.8579999999999,20.7 C53.356,20.349 53.606,19.875 53.606,19.28 C53.606,18.733 53.371,18.279 52.902,17.917 C52.434,17.556 51.559,17.238 50.28,16.965 C48.386,16.564 46.953,15.996 45.981,15.258 C45.009,14.521 44.523,13.517 44.523,12.248 C44.523,10.92 45.085,9.787 46.208,8.85 C47.331,7.912 48.8099999999999,7.443 50.646,7.443 C52.58,7.443 54.116,7.919 55.253,8.871 C56.391,9.824 56.9349999999999,11.003 56.8869999999999,12.409 C56.8869999999999,12.409 56.857,12.497 56.857,12.497 C56.857,12.497 53.444,12.497 53.444,12.497 C53.444,11.843 53.1950000000001,11.281 52.697,10.813 C52.199,10.344 51.516,10.109 50.646,10.109 C49.787,10.109 49.133,10.302 48.683,10.688 C48.234,11.074 48.01,11.545 48.01,12.102 C48.01,12.658 48.222,13.1 48.647,13.427 C49.072,13.755 49.934,14.045 51.232,14.299 C53.224,14.709 54.701,15.287 55.664,16.035 C56.625,16.782 57.106,17.8 57.106,19.089 C57.106,20.515 56.518,21.672 55.341,22.56 C54.164,23.45 52.614,23.893 50.6900000000001,23.893 ZM45,0 C45,0 57,0 57,0 C57,0 57,3 57,3 C57,3 45,3 45,3 C45,3 45,0 45,0 ZM31.9109999999999,16.759 C31.97,18.015 32.338,19.042 33.0170000000001,19.84 C33.696,20.638 34.636,21.037 35.837,21.037 C36.794,21.037 37.614,20.92 38.298,20.686 C38.981,20.451 39.64,20.114 40.275,19.675 C40.275,19.675 41.418,22.009 41.418,22.009 C40.822,22.539 40.0309999999999,22.986 39.045,23.349 C38.058,23.712 36.9160000000001,23.893 35.617,23.893 C33.371,23.893 31.582,23.159 30.249,21.689 C28.915,20.219 28.249,18.332 28.249,16.027 C28.249,16.027 28.249,15.441 28.249,15.441 C28.249,13.137 28.91,11.225 30.234,9.706 C31.557,8.188 33.215,7.434 35.207,7.443 C37.346,7.443 38.984,8.09 40.121,9.384 C41.259,10.678 41.828,12.414 41.828,14.592 C41.828,14.592 41.828,16.687 41.828,16.687 C41.828,16.687 31.9400000000001,16.687 31.9400000000001,16.687 C31.9400000000001,16.687 31.9109999999999,16.759 31.9109999999999,16.759 ZM32.014,14.079 C32.014,14.079 38.298,14.079 38.298,14.079 C38.298,14.079 38.298,13.713 38.298,13.713 C38.298,12.707 38.0410000000001,11.887 37.529,11.252 C37.016,10.617 36.242,10.3 35.207,10.3 C34.328,10.3 33.605,10.649 33.039,11.347 C32.473,12.045 32.121,12.932 31.984,14.006 C31.984,14.006 32.014,14.079 32.014,14.079 ZM21.657,21.623 C21.149,22.365 20.539,22.929 19.826,23.315 C19.1130000000001,23.701 18.283,23.893 17.336,23.893 C15.393,23.893 13.879,23.185 12.795,21.769 C11.711,20.354 11.169,18.493 11.169,16.189 C11.169,16.189 11.169,15.881 11.169,15.881 C11.169,13.352 11.711,11.313 12.795,9.765 C13.879,8.217 15.402,7.443 17.365,7.443 C18.224,7.443 18.9930000000001,7.617 19.672,7.963 C20.351,8.31 20.939,8.806 21.437,9.45 C21.437,9.45 21.437,0.734 21.437,0.734 C21.437,0.734 24.997,0.734 24.997,0.734 C24.997,0.734 24.997,23.586 24.997,23.586 C24.997,23.586 22.009,23.586 22.009,23.586 C22.009,23.586 21.657,21.623 21.657,21.623 ZM21.437,12.219 C21.105,11.633 20.676,11.176 20.148,10.849 C19.621,10.522 18.996,10.358 18.273,10.358 C17.062,10.358 16.169,10.869 15.593,11.889 C15.016,12.91 14.729,14.24 14.729,15.881 C14.729,15.881 14.729,16.189 14.729,16.189 C14.729,17.653 15.009,18.82 15.571,19.689 C16.1319999999999,20.559 17.023,20.993 18.244,20.993 C18.996,20.993 19.633,20.832 20.1559999999999,20.51 C20.678,20.188 21.105,19.729 21.437,19.133 C21.437,19.133 21.437,12.219 21.437,12.219 ZM6.39099999999996,20.639 C6.67399999999998,20.918 7.05100000000004,21.057 7.51900000000001,21.057 C7.71500000000003,21.057 7.90499999999997,21.04 8.09100000000001,21.006 C8.27700000000004,20.971 8.45299999999997,20.925 8.61900000000003,20.866 C8.61900000000003,20.866 9,23.473 9,23.473 C8.697,23.639 8.33500000000004,23.768 7.91499999999996,23.861 C7.495,23.954 7.05999999999995,24 6.61099999999999,24 C5.30100000000004,24 4.27499999999998,23.617 3.53300000000002,22.851 C2.78999999999996,22.084 2.41899999999998,20.881 2.41899999999998,19.241 C2.41899999999998,19.241 2.41899999999998,10.485 2.41899999999998,10.485 C2.41899999999998,10.485 0,10.485 0,10.485 C0,10.485 0,7.849 0,7.849 C0,7.849 2.41899999999998,7.849 2.41899999999998,7.849 C2.41899999999998,7.849 2.41899999999998,0 2.41899999999998,0 C2.41899999999998,0 5.96600000000001,0 5.96600000000001,0 C5.96600000000001,0 5.96600000000001,7.849 5.96600000000001,7.849 C5.96600000000001,7.849 8.80899999999997,7.849 8.80899999999997,7.849 C8.80899999999997,7.849 8.80899999999997,10.485 8.80899999999997,10.485 C8.80899999999997,10.485 5.96600000000001,10.485 5.96600000000001,10.485 C5.96600000000001,10.485 5.96600000000001,19.241 5.96600000000001,19.241 C5.96600000000001,19.895 6.10699999999997,20.361 6.39099999999996,20.639 Z "/>
</svg>
