<svg xmlns="http://www.w3.org/2000/svg" xmlns:xlink="http://www.w3.org/1999/xlink" preserveAspectRatio="xMidYMid" width="13.093" height="20.062" viewBox="0 0 13.093 20.062">
  <defs>
    <style>
      .cls-1 {
        fill: #fff;
        fill-rule: evenodd;
      }
    </style>
  </defs>
  <path d="M6.539,20.077 C6.539,20.077 -0.006,10.154 -0.006,6.540 C-0.006,2.925 2.925,-0.005 6.539,-0.005 C10.154,-0.005 13.084,2.925 13.084,6.540 C13.084,10.154 6.539,20.077 6.539,20.077 ZM6.570,1.484 C3.816,1.484 1.583,3.717 1.583,6.471 C1.583,9.225 6.570,16.974 6.570,16.974 C6.570,16.974 11.557,9.225 11.557,6.471 C11.557,3.717 9.324,1.484 6.570,1.484 ZM5.094,6.500 C5.094,5.706 5.737,5.062 6.531,5.062 C7.325,5.062 7.969,5.706 7.969,6.500 C7.969,7.294 7.325,7.937 6.531,7.937 C5.737,7.937 5.094,7.294 5.094,6.500 Z" class="cls-1"/>
</svg>
