<svg xmlns="http://www.w3.org/2000/svg" xmlns:xlink="http://www.w3.org/1999/xlink" preserveAspectRatio="xMidYMid" width="21.656" height="13.66" viewBox="0 0 21.656 13.66">
  <defs>
    <style>
      .cls-1 {
        fill: #fff;
        fill-rule: evenodd;
      }
    </style>
  </defs>
  <path d="M13.874,0.665 L19.506,0.665 L19.506,2.398 L13.874,2.398 L13.874,0.665 ZM16.690,3.697 C19.441,3.697 21.672,5.928 21.672,8.679 C21.672,8.899 21.652,9.115 21.624,9.329 L19.453,9.329 L16.907,9.329 L14.360,9.329 C14.601,10.811 15.649,11.928 16.907,11.928 C17.902,11.928 18.760,11.222 19.196,10.195 L21.435,10.195 C20.793,12.204 18.912,13.660 16.690,13.660 C13.939,13.660 11.709,11.430 11.709,8.679 C11.709,5.928 13.939,3.697 16.690,3.697 ZM19.347,7.596 C18.989,6.337 18.037,5.430 16.907,5.430 C15.777,5.430 14.825,6.337 14.467,7.596 L19.347,7.596 ZM7.377,13.555 L0.013,13.660 L0.013,0.232 C0.013,0.232 10.486,-1.217 10.409,3.264 C10.409,3.264 10.736,5.543 9.109,6.296 C9.109,6.296 11.271,6.640 11.275,9.762 C11.275,9.762 11.432,12.833 7.377,13.555 ZM6.077,2.398 L3.045,2.398 L3.045,5.430 L6.077,5.430 C7.845,5.424 7.810,4.131 7.810,4.131 C7.777,2.316 6.077,2.398 6.077,2.398 ZM6.510,7.596 L3.045,7.596 L3.045,11.061 L6.510,11.061 C8.266,11.053 8.243,9.329 8.243,9.329 C8.198,7.683 6.510,7.596 6.510,7.596 Z" class="cls-1"/>
</svg>
