<svg xmlns="http://www.w3.org/2000/svg" xmlns:xlink="http://www.w3.org/1999/xlink" preserveAspectRatio="xMidYMid" width="42" height="35" viewBox="0 0 42 35">
  <defs>
    <style>
      .cls-1 {
        fill: #aaa;
        fill-rule: evenodd;
      }
    </style>
  </defs>
  <path d="M41.023,35.000 L12.768,35.000 L4.256,35.000 L1.033,35.000 C0.477,35.000 -0.000,34.610 -0.000,34.078 L-0.000,5.000 C-0.000,4.468 0.443,4.000 1.000,4.000 L13.000,4.000 L13.000,1.000 C13.151,0.204 13.254,0.000 14.000,0.000 L27.932,0.000 C28.499,0.000 28.985,0.457 28.985,1.006 C28.985,1.012 29.008,1.019 29.008,1.026 L29.000,4.000 L41.000,4.000 C41.557,4.000 42.000,4.468 42.000,5.000 L42.000,34.078 C42.000,34.610 41.579,35.000 41.023,35.000 ZM26.992,1.927 L15.000,2.000 L15.000,4.000 L27.000,4.000 L26.992,1.927 ZM40.000,6.000 L2.000,6.000 L1.990,32.987 L40.078,32.987 L40.000,6.000 ZM6.500,10.000 L12.500,10.000 C12.776,10.000 13.000,10.224 13.000,10.500 L13.000,11.500 C13.000,11.776 12.776,12.000 12.500,12.000 L6.500,12.000 C6.224,12.000 6.000,11.776 6.000,11.500 L6.000,10.500 C6.000,10.224 6.224,10.000 6.500,10.000 ZM6.500,14.000 L12.500,14.000 C12.776,14.000 13.000,14.224 13.000,14.500 L13.000,15.500 C13.000,15.776 12.776,16.000 12.500,16.000 L6.500,16.000 C6.224,16.000 6.000,15.776 6.000,15.500 L6.000,14.500 C6.000,14.224 6.224,14.000 6.500,14.000 ZM18.927,20.395 C18.889,20.101 18.871,19.804 18.871,19.508 C18.871,19.206 18.890,18.905 18.928,18.606 L17.777,17.808 C17.000,17.327 17.043,16.162 17.895,14.750 C18.750,13.334 19.785,12.718 20.610,13.125 L21.910,13.680 C22.409,13.319 22.949,13.021 23.523,12.789 L23.670,11.431 C23.718,10.547 24.794,10.000 26.500,10.000 C28.210,10.000 29.285,10.548 29.329,11.435 L29.476,12.789 C30.050,13.021 30.590,13.319 31.089,13.680 L32.391,13.124 C33.216,12.719 34.250,13.337 35.104,14.750 C35.959,16.166 36.000,17.331 35.219,17.811 L34.071,18.606 C34.109,18.904 34.129,19.206 34.129,19.508 C34.129,19.805 34.110,20.102 34.072,20.395 L35.221,21.191 C35.515,21.374 35.915,21.805 35.723,22.755 C35.631,23.210 35.411,23.741 35.104,24.250 C34.251,25.662 33.218,26.280 32.393,25.877 L31.102,25.326 C30.599,25.691 30.054,25.992 29.474,26.227 L29.329,27.565 C29.285,28.452 28.210,29.000 26.500,29.000 C24.795,29.000 23.719,28.453 23.670,27.569 L23.525,26.227 C22.945,25.992 22.400,25.691 21.897,25.325 L20.607,25.876 C20.295,26.028 19.704,26.144 18.940,25.510 C18.574,25.207 18.203,24.759 17.895,24.250 C17.043,22.838 17.000,21.674 17.776,21.192 L18.927,20.395 ZM20.648,19.507 C20.648,19.878 20.686,20.249 20.762,20.610 C20.830,20.936 20.693,21.270 20.412,21.465 L19.020,22.429 C19.061,22.628 19.179,22.977 19.435,23.400 C19.690,23.823 19.947,24.096 20.107,24.229 L21.673,23.560 C21.991,23.424 22.363,23.478 22.624,23.699 C23.215,24.199 23.892,24.574 24.635,24.813 C24.965,24.919 25.200,25.200 25.236,25.531 L25.413,27.158 C25.613,27.224 25.989,27.300 26.500,27.300 C27.010,27.300 27.386,27.224 27.586,27.158 L27.763,25.531 C27.799,25.200 28.034,24.919 28.364,24.813 C29.107,24.574 29.784,24.199 30.375,23.699 C30.636,23.479 31.008,23.424 31.327,23.560 L32.893,24.229 C33.052,24.096 33.309,23.823 33.565,23.400 C33.820,22.977 33.939,22.628 33.979,22.429 L32.588,21.465 C32.306,21.270 32.170,20.936 32.238,20.610 C32.313,20.249 32.351,19.878 32.351,19.507 C32.351,19.132 32.312,18.757 32.235,18.393 C32.167,18.066 32.303,17.731 32.585,17.536 L33.979,16.571 C33.939,16.371 33.820,16.022 33.565,15.599 C33.309,15.176 33.052,14.903 32.893,14.770 L31.315,15.445 C30.997,15.580 30.626,15.527 30.365,15.306 C29.776,14.811 29.104,14.440 28.365,14.202 C28.035,14.096 27.801,13.816 27.765,13.485 L27.586,11.841 C27.386,11.775 27.010,11.699 26.500,11.699 C25.989,11.699 25.613,11.775 25.413,11.841 L25.234,13.485 C25.198,13.816 24.964,14.096 24.634,14.202 C23.896,14.440 23.223,14.811 22.634,15.307 C22.373,15.526 22.002,15.580 21.685,15.445 L20.107,14.771 C19.947,14.904 19.690,15.176 19.434,15.599 C19.179,16.023 19.061,16.372 19.020,16.571 L20.414,17.537 C20.696,17.732 20.833,18.067 20.764,18.393 C20.687,18.758 20.648,19.132 20.648,19.507 ZM26.500,16.275 C28.364,16.275 29.881,17.726 29.881,19.509 C29.881,21.291 28.364,22.741 26.500,22.741 C24.635,22.741 23.118,21.291 23.118,19.509 C23.118,17.726 24.635,16.275 26.500,16.275 ZM26.500,21.042 C27.384,21.042 28.103,20.354 28.103,19.509 C28.103,18.663 27.384,17.975 26.500,17.975 C25.615,17.975 24.896,18.663 24.896,19.509 C24.896,20.354 25.615,21.042 26.500,21.042 Z" class="cls-1"/>
</svg>
